HIERARCHY
ROOT Hips
{
  OFFSET 0 89.5177 0.535
  CHANNELS 6 Xposition Yposition Zposition Zrotation Xrotation Yrotation
  JOINT Spine
  {
    OFFSET 12.0259 -0.162855 1.69034e-005
    CHANNELS 3 Zrotation Xrotation Yrotation
    JOINT Spine1
    {
      OFFSET 15.3169 -0.0121922 0
      CHANNELS 3 Zrotation Xrotation Yrotation
      JOINT Spine2
      {
        OFFSET 15.3176 -0.0121908 0
        CHANNELS 3 Zrotation Xrotation Yrotation
        JOINT Neck
        {
          OFFSET 19.9142 1.56338 0
          CHANNELS 3 Zrotation Xrotation Yrotation
          JOINT Head
          {
            OFFSET 6.92651 0 0
            CHANNELS 3 Zrotation Xrotation Yrotation
            End Site
            {
              OFFSET 20.7666 0 0
            }
          }
          JOINT LeftShoulder
          {
            OFFSET -6.20654 0.708824 7.28219
            CHANNELS 3 Zrotation Xrotation Yrotation
            JOINT LeftArm
            {
              OFFSET 14.108 0 -1.52588e-005
              CHANNELS 3 Zrotation Xrotation Yrotation
              JOINT LeftForeArm
              {
                OFFSET 28.5802 0 0
                CHANNELS 3 Zrotation Xrotation Yrotation
                JOINT LeftHand
                {
                  OFFSET 27.092 0 0
                  CHANNELS 3 Zrotation Xrotation Yrotation
                  End Site
                  {
                    OFFSET 9.55928 -0.186424 0.145352
                  }
                }
              }
            }
          }
          JOINT RightShoulder
          {
            OFFSET -6.20654 0.708866 -7.28218
            CHANNELS 3 Zrotation Xrotation Yrotation
            JOINT RightArm
            {
              OFFSET 14.108 0 1.52588e-005
              CHANNELS 3 Zrotation Xrotation Yrotation
              JOINT RightForeArm
              {
                OFFSET 28.5802 0 0
                CHANNELS 3 Zrotation Xrotation Yrotation
                JOINT RightHand
                {
                  OFFSET 27.092 0 0
                  CHANNELS 3 Zrotation Xrotation Yrotation
                  End Site
                  {
                    OFFSET 9.55929 -0.186417 -0.145354
                  }
                }
              }
            }
          }
        }
      }
    }
  }
  JOINT LeftUpLeg
  {
    OFFSET 0.005 -0.535 8.837
    CHANNELS 3 Zrotation Xrotation Yrotation
    JOINT LeftLeg
    {
      OFFSET 39.9035 0 0
      CHANNELS 3 Zrotation Xrotation Yrotation
      JOINT LeftFoot
      {
        OFFSET 39.6689 0 0
        CHANNELS 3 Zrotation Xrotation Yrotation
        JOINT LeftToe
        {
          OFFSET 10.1624 13.6296 0
          CHANNELS 3 Zrotation Xrotation Yrotation
          End Site
          {
            OFFSET 8.38147 0 0
          }
        }
      }
    }
  }
  JOINT RightUpLeg
  {
    OFFSET 0.005 -0.535 -8.837
    CHANNELS 3 Zrotation Xrotation Yrotation
    JOINT RightLeg
    {
      OFFSET 39.9035 0 0
      CHANNELS 3 Zrotation Xrotation Yrotation
      JOINT RightFoot
      {
        OFFSET 39.6689 0 0
        CHANNELS 3 Zrotation Xrotation Yrotation
        JOINT RightToe
        {
          OFFSET 10.1624 13.6296 0
          CHANNELS 3 Zrotation Xrotation Yrotation
          End Site
          {
            OFFSET 8.38147 0 0
          }
        }
      }
    }
  }
}
MOTION
Frames:	15
Frame Time:	0.0333333
507.315 85.9164 -166.63 127.619 -79.4294 37.0588 -2.06143 -0.497272 -0.721501 -4.12917 -0.967768 -1.46031 -4.12917 -0.967768 -1.46032 -8.30828e-012 -9.0191e-006 -5.27751e-005 10.4549 7.21498 -2.98242 179.083 -14.5244 -93.6519 -29.7363 -50.1102 -4.78437 -1.01435e-005 0 -0 -39.0565 -21.8626 -26.0032 179.432 4.94201 96.5645 49.7143 66.4028 -59.4509 -4.98846e-006 0 -0 -39.2673 19.3642 27.1565 -17.5412 4.15053 -176.972 -32.5859 -1.59028e-015 -7.95139e-016 21.6285 3.45816 -2.08981 90 -1.51661e-020 1.59028e-015 -15.0449 -5.56254 177.063 -31.1189 0 -3.97569e-016 22.5708 -1.09229 2.15785 90 1.18485e-020 -1.19271e-015 
507.309 85.9221 -166.682 126.91 -79.3525 36.3665 -2.05415 -0.505792 -0.741531 -4.1149 -0.984176 -1.5006 -4.1149 -0.984176 -1.50061 -8.30748e-012 -9.0191e-006 -5.27751e-005 10.4325 7.08811 -2.85131 179.078 -14.3464 -93.7181 -29.4912 -50.1934 -4.73984 -8.00969e-006 9.54166e-015 7.95139e-016 -39.0359 -21.9279 -25.9621 179.432 5.00351 96.4808 49.2742 66.3639 -59.0884 -4.93945e-006 0 -0 -38.984 19.6671 27.2855 -17.4477 4.16654 -176.987 -32.5364 -3.18055e-015 -1.59028e-015 21.6176 3.57952 -2.09466 90 2.08533e-021 -1.59028e-015 -14.8786 -5.59016 177.047 -31.0427 3.97569e-016 -3.97569e-016 22.6009 -1.00048 2.16195 90 1.89576e-022 1.59028e-015 
507.31 85.9331 -166.736 126.305 -79.3082 35.7945 -2.00831 -0.507485 -0.773158 -4.02351 -0.987057 -1.56352 -4.02351 -0.987057 -1.56353 -8.30828e-012 -9.0191e-006 -5.27751e-005 10.0079 6.93865 -2.73199 179.056 -13.9236 -93.9163 -28.748 -50.2505 -4.50806 -7.79139e-006 3.18055e-015 1.59028e-015 -38.8309 -21.9024 -25.8537 179.456 4.90518 96.3381 48.009 66.1881 -57.8117 -4.89121e-006 0 -3.18055e-015 -38.7924 20.0687 27.59 -17.2983 4.01185 -177.047 -32.4346 -1.59028e-015 -2.38542e-015 21.5948 3.53236 -2.10657 90 3.50715e-020 -0 -14.7268 -5.60826 177.028 -30.9695 -7.95139e-016 -1.98785e-016 22.6155 -0.927773 2.15271 90 1.51661e-021 -7.95139e-016 
507.315 85.9262 -166.757 125.667 -79.2916 35.1613 -1.95368 -0.512864 -0.777977 -3.91435 -0.998114 -1.57288 -3.91435 -0.998114 -1.57289 -8.30748e-012 -9.0191e-006 -5.27751e-005 9.77559 6.84841 -2.75335 179.058 -13.2724 -94.0976 -27.3674 -49.4063 -3.93665 -7.57333e-006 0 -1.19271e-015 -39.0397 -22.2798 -26.1918 179.474 4.72408 96.3648 47.2121 66.0613 -56.9681 -4.84381e-006 0 -0 -38.4824 20.2066 27.6353 -17.2082 3.84868 -177.072 -32.4613 1.59028e-015 -1.59028e-015 21.6204 3.46677 -2.11545 90 7.20388e-021 1.59028e-015 -14.6024 -5.60023 177.033 -30.9765 0 -0 22.6574 -0.857099 2.15111 90 3.65156e-021 -7.95139e-016 
507.322 85.9131 -166.745 125.078 -79.2603 34.562 -1.9228 -0.518737 -0.792335 -3.85258 -0.999752 -1.60135 -3.85258 -0.999752 -1.60136 -8.30669e-012 -9.0191e-006 -5.27751e-005 10.019 6.75651 -2.76185 179.082 -12.4959 -94.2334 -26.1678 -48.3322 -3.5804 -7.35613e-006 3.18055e-015 -3.97569e-016 -39.149 -22.8032 -26.6122 179.487 4.60435 96.3604 47.3674 66.1502 -57.0891 -4.79735e-006 -3.18055e-015 1.59028e-015 -38.1375 20.2175 27.4222 -17.2154 3.86879 -177.053 -32.5599 3.18055e-015 -0 21.6439 3.54702 -2.11554 90 7.27971e-020 -0 -14.5555 -5.64218 177.037 -31.0382 -7.95139e-016 -9.93923e-016 22.6926 -0.828905 2.14877 90 3.60194e-020 -0 
507.323 85.9104 -166.725 124.962 -79.2692 34.4423 -1.9102 -0.521496 -0.802488 -3.82775 -1.01544 -1.62182 -3.82775 -1.01544 -1.62183 -8.30589e-012 -9.0191e-006 -5.27751e-005 10.3194 6.80136 -2.79865 179.111 -12.2837 -94.1724 -26.0011 -48.0762 -3.65995 -7.14041e-006 6.36111e-015 3.97569e-016 -39.2999 -23.1976 -26.9484 179.493 4.49594 96.4406 47.9968 66.2368 -57.8631 -4.75191e-006 0 -1.59028e-015 -37.5029 20.2466 27.1142 -17.2098 3.77884 -177.062 -32.5829 3.18055e-015 1.59028e-015 21.6463 3.47881 -2.11511 90 -1.51661e-020 3.18055e-015 -14.5563 -5.63191 177.042 -31.0612 0 -0 22.6915 -0.834812 2.14606 90 1.89576e-019 -7.95139e-016 
507.325 85.9142 -166.694 125.65 -79.3258 35.1158 -1.93897 -0.507958 -0.813946 -3.88516 -0.987572 -1.64451 -3.88516 -0.987571 -1.64452 -8.3051e-012 -9.0191e-006 -5.27751e-005 10.6379 6.84044 -2.85228 179.121 -12.1948 -94.1543 -25.9678 -48.876 -3.72232 -6.92681e-006 6.36111e-015 7.95139e-016 -39.0869 -23.1264 -26.7309 179.508 4.31734 96.5095 47.9878 66.2123 -58.009 -4.70758e-006 -1.59028e-015 -1.59028e-015 -36.9786 20.4194 26.9286 -17.2897 3.85649 -177.03 -32.5771 1.59028e-015 1.59028e-015 21.6435 3.4647 -2.11465 90 -3.88251e-019 -0 -14.6823 -5.59256 177.065 -31.071 -3.97569e-016 3.97569e-016 22.6479 -0.883164 2.14335 90 -4.9593e-019 -0 
507.33 85.9198 -166.684 126.739 -79.4947 36.1865 -1.97659 -0.47121 -0.813091 -3.95985 -0.913586 -1.64184 -3.95985 -0.913586 -1.64185 -8.30748e-012 -9.0191e-006 -5.27751e-005 11.0532 6.84361 -2.99813 179.14 -12.2194 -94.0579 -26.0672 -49.4276 -3.80799 -6.71595e-006 1.27222e-014 -0 -39.0374 -23.1286 -26.715 179.523 4.17174 96.5257 47.5121 66.1744 -57.7253 -4.66443e-006 3.18055e-015 3.18055e-015 -36.8315 20.5975 26.9626 -17.3337 4.17424 -176.944 -32.5565 -1.59028e-015 -7.95139e-016 21.6408 3.5251 -2.11411 90 0 -1.59028e-015 -14.7742 -5.455 177.102 -31.0504 -3.97569e-016 -3.97569e-016 22.5973 -0.952738 2.14099 90 6.00576e-019 1.59028e-015 
507.333 85.9293 -166.678 127.69 -79.6397 37.1303 -1.99735 -0.430126 -0.81706 -4.00079 -0.831009 -1.64849 -4.00079 -0.831009 -1.6485 -8.30748e-012 -9.0191e-006 -5.27751e-005 11.1724 6.90718 -3.14137 179.158 -12.1862 -93.9817 -26.1026 -49.2775 -3.91433 -6.50847e-006 -6.36111e-015 -0 -39.0621 -23.1708 -26.7434 179.526 4.15725 96.5087 47.5297 66.2695 -57.9027 -4.62257e-006 -1.59028e-015 -0 -36.7726 20.7195 27.0469 -17.3407 4.37702 -176.893 -32.5038 1.59028e-015 -7.95139e-016 21.636 3.52772 -2.11326 90 9.70628e-020 -1.59028e-015 -14.8524 -5.3415 177.135 -31.0223 3.97569e-016 -0 22.5427 -1.03751 2.13934 90 -2.5661e-018 7.95139e-016 
507.334 85.9276 -166.653 128.073 -79.6432 37.4802 -1.97509 -0.411966 -0.824584 -3.95603 -0.794764 -1.66274 -3.95603 -0.794764 -1.66275 -8.30748e-012 -9.0191e-006 -5.27751e-005 10.752 6.92745 -3.23652 179.167 -12.1043 -93.9659 -26.1188 -49.1116 -4.08631 -6.30498e-006 -3.18055e-015 -3.97569e-016 -39.0531 -23.2241 -26.7782 179.525 4.16832 96.5059 47.6157 66.3187 -58.0269 -4.58206e-006 0 3.18055e-015 -36.6002 20.7874 27.077 -17.4549 4.56401 -176.82 -32.5544 -1.59028e-015 -7.95139e-016 21.638 3.64337 -2.11252 90 -7.58303e-021 1.59028e-015 -14.9283 -5.32449 177.174 -31.0258 -7.95139e-016 3.97569e-016 22.5202 -1.04651 2.13869 90 1.47869e-020 -7.95139e-016 
507.335 85.9249 -166.624 127.865 -79.6185 37.26 -1.93037 -0.405898 -0.834497 -3.86658 -0.782951 -1.68206 -3.86658 -0.782951 -1.68207 -8.30748e-012 -9.0191e-006 -5.27751e-005 10.2146 6.94893 -3.28092 179.175 -12.0655 -93.9422 -26.2587 -49.0486 -4.33001 -6.10612e-006 -6.36111e-015 3.97569e-016 -39.1184 -23.2608 -26.8914 179.529 4.11318 96.529 47.6104 66.2693 -57.9087 -4.543e-006 3.18055e-015 3.18055e-015 -36.5124 20.7514 27.1682 -17.4565 4.31593 -176.862 -32.5824 1.59028e-015 -0 21.6402 3.49214 -2.10743 90 -3.03321e-021 1.59028e-015 -14.9292 -5.33901 177.178 -31.0404 7.95139e-016 7.95139e-016 22.5174 -1.01941 2.14162 90 3.22279e-021 -3.97569e-016 
507.329 85.9216 -166.592 127.746 -79.5809 37.1226 -1.89564 -0.405184 -0.846348 -3.79715 -0.779928 -1.70547 -3.79715 -0.779928 -1.70548 -8.30907e-012 -9.0191e-006 -5.27751e-005 9.932 7.11537 -3.23688 179.163 -12.1894 -93.959 -26.6508 -49.3375 -4.60695 -5.91252e-006 3.18055e-015 7.95139e-016 -39.1546 -23.131 -26.8751 179.542 4.0171 96.5229 47.5707 66.2337 -57.7078 -4.50546e-006 -4.77083e-015 -4.77083e-015 -36.7142 20.7841 27.3252 -17.5197 4.31987 -176.853 -32.6333 -1.59028e-015 -3.18055e-015 21.6354 3.5187 -2.09447 90 -1.68723e-020 -0 -14.9612 -5.36522 177.18 -31.0589 0 1.98785e-016 22.5088 -1.02467 2.1482 90 -2.41709e-020 -3.97569e-016 
507.32 85.9191 -166.558 127.605 -79.4731 36.9573 -1.88066 -0.405128 -0.851251 -3.76737 -0.786471 -1.71529 -3.76737 -0.786471 -1.7153 -8.30748e-012 -9.0191e-006 -5.27751e-005 9.93058 7.27218 -3.25778 179.155 -12.2279 -93.9848 -26.8515 -49.7269 -4.71033 -5.7248e-006 -6.36111e-015 1.19271e-015 -39.1146 -22.9793 -26.7532 179.54 4.0361 96.5145 47.6256 66.2653 -57.6997 -4.46955e-006 3.18055e-015 -3.18055e-015 -36.7732 20.7744 27.3905 -17.6413 4.31457 -176.845 -32.6886 0 -0 21.6171 3.59255 -2.0817 90 -2.90051e-020 -1.59028e-015 -15.0216 -5.47715 177.168 -31.0654 7.95139e-016 1.98785e-016 22.5003 -1.0379 2.1575 90 1.28912e-020 -7.95139e-016 
507.294 85.9178 -166.544 127.794 -79.3871 37.1368 -1.89248 -0.404414 -0.86386 -3.79098 -0.779573 -1.74047 -3.79098 -0.779573 -1.74048 -8.30788e-012 -9.0191e-006 -5.27751e-005 10.1227 7.4522 -3.28379 179.143 -12.3213 -94.0098 -27.1209 -49.8023 -4.79753 -5.54359e-006 -1.59028e-014 -0 -39.0738 -22.937 -26.6756 179.532 4.11443 96.4907 47.7818 66.3039 -57.8886 -4.43533e-006 3.18055e-015 -0 -36.8326 20.7268 27.39 -17.7351 4.27178 -176.875 -32.7029 -1.59028e-015 7.95139e-016 21.6152 3.58826 -2.05891 90 -1.59244e-020 3.18055e-015 -15.1218 -5.5695 177.131 -31.075 7.95139e-016 -0 22.4927 -1.09166 2.17869 90 -2.14221e-020 7.95139e-016 
507.266 85.9166 -166.526 128.222 -79.3408 37.5418 -1.90847 -0.399263 -0.862493 -3.82285 -0.769076 -1.73767 -3.82285 -0.769076 -1.73768 -8.30669e-012 -9.0191e-006 -5.27751e-005 10.3875 7.6163 -3.42515 179.14 -12.4273 -93.9898 -27.2882 -49.7637 -4.81451 -5.36952e-006 -9.54166e-015 -3.97569e-016 -39.1479 -22.9402 -26.7416 179.529 4.12567 96.5246 47.9773 66.2975 -58.0849 -4.40291e-006 1.59028e-015 3.18055e-015 -36.733 20.7291 27.3991 -17.8502 4.30878 -176.873 -32.729 -3.18055e-015 -7.95139e-016 21.6187 3.61404 -2.03466 90 2.98582e-021 -0 -15.2178 -5.55572 177.127 -31.0665 7.95139e-016 5.96354e-016 22.4772 -1.08481 2.20063 90 6.11382e-021 7.95139e-016 
